<?xml version="1.0" encoding="UTF-8" standalone="no"?>
<!-- Created with Inkscape (http://www.inkscape.org/) -->

<svg
   xmlns:dc="http://purl.org/dc/elements/1.1/"
   xmlns:cc="http://creativecommons.org/ns#"
   xmlns:rdf="http://www.w3.org/1999/02/22-rdf-syntax-ns#"
   xmlns:svg="http://www.w3.org/2000/svg"
   xmlns="http://www.w3.org/2000/svg"
   xmlns:sodipodi="http://sodipodi.sourceforge.net/DTD/sodipodi-0.dtd"
   xmlns:inkscape="http://www.inkscape.org/namespaces/inkscape"
   width="500"
   height="500"
   id="svg2"
   version="1.1"
   inkscape:version="0.48.3.1 r9886"
   sodipodi:docname="curve.svg">
  <defs
     id="defs4" />
  <sodipodi:namedview
     id="base"
     pagecolor="#ffffff"
     bordercolor="#666666"
     borderopacity="1.0"
     inkscape:pageopacity="0.0"
     inkscape:pageshadow="2"
     inkscape:zoom="0.98994949"
     inkscape:cx="410.37484"
     inkscape:cy="265.20156"
     inkscape:document-units="px"
     inkscape:current-layer="svg2"
     showgrid="false"
     inkscape:window-width="1920"
     inkscape:window-height="1021"
     inkscape:window-x="0"
     inkscape:window-y="27"
     inkscape:window-maximized="1" />
  <metadata
     id="metadata7">
    <rdf:RDF>
      <cc:Work
         rdf:about="">
        <dc:format>image/svg+xml</dc:format>
        <dc:type
           rdf:resource="http://purl.org/dc/dcmitype/StillImage" />
        <dc:title></dc:title>
      </cc:Work>
    </rdf:RDF>
  </metadata>
  <path
     style="fill:none;stroke:#000000;stroke-width:1px;stroke-linecap:butt;stroke-linejoin:miter;stroke-opacity:1"
     d="M 77.781746,87.85776 233.34524,93.918676 338.4011,136.34508 c 0,0 38.3858,11.11168 10.10153,52.52794 -28.28427,41.41625 -93.94419,31.31472 -93.94419,31.31472 0,0 -47.47717,-44.44671 -96.97464,-9.09137 -49.49748,35.35534 -58.58885,93.94419 -58.58885,97.9848 0,4.04061 -43.43656,51.51778 13.13198,80.8122 56.56855,29.29443 124.24877,15.15229 130.30968,12.12183 6.06092,-3.03045 47.47717,7.07107 20.20305,-40.4061 -27.27412,-47.47717 -69.70052,-64.64976 -28.28427,-78.7919 41.41626,-14.14213 96.97465,-29.29442 106.06602,30.30458 9.09137,59.599 0,77.78174 30.30458,91.92388 30.30457,14.14214 58.58884,-4.04061 58.58884,-4.04061"
     id="path3012"
     inkscape:connector-curvature="0" />
</svg>
