<?xml version="1.0" encoding="UTF-8" standalone="no"?>
<!-- Created with Inkscape (http://www.inkscape.org/) -->

<svg
   xmlns:dc="http://purl.org/dc/elements/1.1/"
   xmlns:cc="http://creativecommons.org/ns#"
   xmlns:rdf="http://www.w3.org/1999/02/22-rdf-syntax-ns#"
   xmlns:svg="http://www.w3.org/2000/svg"
   xmlns="http://www.w3.org/2000/svg"
   xmlns:sodipodi="http://sodipodi.sourceforge.net/DTD/sodipodi-0.dtd"
   xmlns:inkscape="http://www.inkscape.org/namespaces/inkscape"
   width="500"
   height="500"
   id="svg2985"
   version="1.1"
   inkscape:version="0.48.3.1 r9886"
   sodipodi:docname="ellipsehanddrawn1.svg">
  <defs
     id="defs2987" />
  <sodipodi:namedview
     id="base"
     pagecolor="#ffffff"
     bordercolor="#666666"
     borderopacity="1.0"
     inkscape:pageopacity="0.0"
     inkscape:pageshadow="2"
     inkscape:zoom="1.4"
     inkscape:cx="294.32492"
     inkscape:cy="260.82663"
     inkscape:document-units="px"
     inkscape:current-layer="layer1"
     showgrid="true"
     inkscape:window-width="1450"
     inkscape:window-height="854"
     inkscape:window-x="2"
     inkscape:window-y="84"
     inkscape:window-maximized="0" />
  <metadata
     id="metadata2990">
    <rdf:RDF>
      <cc:Work
         rdf:about="">
        <dc:format>image/svg+xml</dc:format>
        <dc:type
           rdf:resource="http://purl.org/dc/dcmitype/StillImage" />
        <dc:title></dc:title>
      </cc:Work>
    </rdf:RDF>
  </metadata>
  <g
     inkscape:label="Layer 1"
     inkscape:groupmode="layer"
     id="layer1"
     transform="translate(0,-552.36218)">
    <path
       style="fill:none;stroke:#000000;stroke-width:1px;stroke-linecap:butt;stroke-linejoin:miter;stroke-opacity:1"
       d="m 184.35284,250.74486 c -0.18364,2.19552 0.20407,4.43348 0.75761,6.56599 0.93872,3.61643 2.06087,7.35795 4.29315,10.35406 2.78848,3.74263 6.98984,6.22898 10.85914,8.83884 3.90439,2.63353 8.10281,4.83522 12.37437,6.81853 3.84266,1.78417 7.80696,3.3429 11.86929,4.54569 5.03423,1.49055 10.21548,2.48562 15.40483,3.28299 5.2655,0.80907 10.59635,1.13281 15.9099,1.51523 3.44655,0.24805 6.89873,0.53339 10.35407,0.50508 3.88035,-0.0318 7.7601,-0.3283 11.61675,-0.75762 4.82784,-0.53744 9.62528,-1.35095 14.39467,-2.27284 4.07002,-0.78671 8.21244,-1.3993 12.12183,-2.77792 3.2665,-1.15191 6.21569,-3.05872 9.34392,-4.54569 2.34702,-1.11563 4.76899,-2.07735 7.07106,-3.28299 2.50676,-1.31284 4.96734,-2.72619 7.32361,-4.29315 1.75237,-1.16535 3.59827,-2.2652 5.05076,-3.78807 1.96596,-2.06123 3.35843,-4.6133 4.79823,-7.07107 1.14173,-1.94897 2.35252,-3.90628 3.03045,-6.06092 0.86824,-2.75951 1.47289,-5.70106 1.2627,-8.58629 -0.19157,-2.62961 -1.21414,-5.16147 -2.27285,-7.57615 -1.06087,-2.41959 -2.36208,-4.77833 -4.04061,-6.81853 -2.00755,-2.44011 -4.54813,-4.41104 -7.07107,-6.31345 -3.02084,-2.27785 -6.33274,-4.14721 -9.59645,-6.06092 -2.89192,-1.69571 -5.76366,-3.46331 -8.83883,-4.79822 -2.93021,-1.27198 -5.99538,-2.24373 -9.09137,-3.03046 -3.72896,-0.94757 -7.57808,-1.33605 -11.36422,-2.0203 -4.12694,-0.74584 -8.20411,-1.82926 -12.37437,-2.27285 -5.52721,-0.58793 -11.11115,-0.65517 -16.66751,-0.50507 -5.99585,0.16197 -12.00005,0.6154 -17.93021,1.51523 -5.02816,0.76297 -9.96457,2.0548 -14.89975,3.28299 -4.57816,1.13934 -9.2401,2.07799 -13.63706,3.78807 -4.842,1.88316 -9.66026,4.0538 -13.8896,7.07107 -2.85934,2.0399 -5.25923,4.68373 -7.57614,7.32361 -2.1434,2.44218 -4.3657,4.91714 -5.80838,7.82868 -1.47855,2.98392 -2.50035,6.27789 -2.77792,9.59645 z"
       id="path3014"
       inkscape:connector-curvature="0"
       sodipodi:nodetypes="aaaaaaaaaaaaaaaaaaaaaaaaaaaaaaaaaaa"
       transform="translate(0,552.36218)" />
  </g>
</svg>
