<svg height="500" width="500">
<path d="M 250.0,250.0 253.41822496956863,256.1813526585099 256.93717342765666,262.1525563296549 260.5505273403653,267.90332141123514 264.2517270928591,273.42390622920095 268.03398593971895,278.70513827853136 271.8903049768998,283.73843416274343 275.81348860148006,288.5158181870756 279.7961604242791,293.0299395634387 283.83077959939465,297.2740881883781 287.90965753376327,301.24220895852386 292.02497493898534,304.9289145913231 296.16879918687954,308.3294969222372 300.3331019295397,311.4399366530396 304.5097769440675,314.2569115293633 308.6906581616437,316.7778029292054 312.86753784017964,319.00070084770044 317.032184839464,320.924407267109 321.1763629574866,322.5484379046276 325.29184928647913,323.87302233430387 329.37045254716634,324.89910248302806 333.4040313597685,325.628329504252 337.3845124104378,326.0630590367716 341.3039084720444,326.206344859562 345.15433623855733,326.06193095729486 348.9280339326852,325.6342420147671 352.61737864695203,324.9283723620332 356.2149033789864,323.950073395542 359.71331372249244,322.70573950403576 363.1055041761482,321.2023925313569 366.38457403354056,319.44766481162344 369.54384281819404,317.44978081547083 372.5768652287759,315.2175374492049 375.4774455606712,312.76028305176374 378.2396515713017,310.0878951373391 380.85782775782343,307.21075693434733 383.326608017164,304.1397327741718 385.6409276597596,300.88614238570256 387.79603474981167,297.46173415417974 389.78750074640817,293.87865740519555 391.6112304214346,290.1494337769167 393.26347103183593,286.2869277456573 394.7408207254788,282.30431637185103 396.04023616159407,278.21505833523617 397.159039328561,274.03286232968077 398.094923543606,269.7716548895242 398.84595862084143,265.44554772060076 399.4105951959539,261.068804610233 399.7876681977537,256.6558079914374 399.9763994587347,252.22102523736768 399.9763994587347,247.7789747626323 399.78766819775365,243.34419200856252 399.4105951959539,238.93119538976697 398.84595862084143,234.55445227939924 398.094923543606,230.2283451104758 397.159039328561,225.96713767031923 396.04023616159407,221.78494166476383 394.7408207254788,217.69568362814897 393.26347103183593,213.71307225434265 391.6112304214346,209.85056622308332 389.78750074640817,206.12134259480445 387.79603474981167,202.53826584582026 385.64092765975954,199.11385761429744 383.326608017164,195.86026722582818 380.85782775782343,192.78924306565267 378.2396515713017,189.9121048626609 375.4774455606712,187.2397169482362 372.5768652287759,184.78246255079512 369.543842818194,182.5502191845291 366.38457403354056,180.55233518837656 363.10550417614814,178.79760746864304 359.71331372249244,177.29426049596418 356.2149033789864,176.049926604458 352.61737864695203,175.0716276379668 348.92803393268514,174.3657579852329 345.1543362385573,173.93806904270514 341.3039084720444,173.79365514043798 337.3845124104378,173.93694096322838 333.40403135976845,174.371670495748 329.3704525471663,175.100897516972 325.29184928647913,176.12697766569613 321.17636295748656,177.45156209537248 317.032184839464,179.07559273289098 312.86753784017964,180.99929915229956 308.6906581616437,183.2221970707946 304.5097769440674,185.74308847063674 300.3331019295396,188.56006334696042 296.16879918687954,191.67050307776282 292.02497493898534,195.07108540867688 287.9096575337632,198.7577910414762 283.83077959939465,202.72591181162193 279.7961604242791,206.9700604365613 275.81348860148006,211.48418181292442 271.89030497689976,216.26156583725663 268.03398593971895,221.2948617214687 264.2517270928591,226.57609377079905 260.55052734036525,232.09667858876492 256.93717342765666,237.84744367034511 253.4182249695686,243.81864734149013 250.0,250.0 249.99999999999997,250.00000000000006 246.58177503043137,256.1813526585099 243.0628265723433,262.1525563296549 239.44947265963475,267.9033214112351 235.74827290714092,273.4239062292009 231.966014060281,278.7051382785314 228.10969502310024,283.7384341627434 224.1865113985199,288.51581818707564 220.20383957572088,293.0299395634387 216.16922040060533,297.2740881883781 212.09034246623676,301.24220895852386 207.97502506101466,304.92891459132306 203.83120081312035,308.32949692223724 199.66689807046038,311.4399366530396 195.49022305593252,314.2569115293633 191.30934183835626,316.7778029292054 187.13246215982034,319.0007008477005 182.96781516053602,320.924407267109 178.8236370425134,322.5484379046276 174.70815071352078,323.8730223343039 170.62954745283372,324.89910248302806 166.59596864023143,325.628329504252 162.61548758956218,326.0630590367716 158.69609152795562,326.206344859562 154.8456637614427,326.06193095729486 151.0719660673148,325.6342420147671 147.3826213530479,324.9283723620332 143.78509662101362,323.950073395542 140.28668627750747,322.70573950403576 136.89449582385186,321.20239253135696 133.61542596645938,319.44766481162344 130.45615718180596,317.44978081547083 127.4231347712241,315.2175374492049 124.52255443932883,312.76028305176374 121.76034842869834,310.0878951373391 119.14217224217657,307.2107569343473 116.67339198283597,304.13973277417176 114.35907234024037,300.8861423857025 112.20396525018833,297.4617341541797 110.21249925359183,293.87865740519555 108.38876957856544,290.1494337769167 106.73652896816407,286.28692774565735 105.25917927452122,282.304316371851 103.95976383840599,278.2150583352362 102.84096067143895,274.0328623296807 101.90507645639403,269.77165488952414 101.15404137915854,265.44554772060076 100.58940480404613,261.068804610233 100.2123318022463,256.6558079914375 100.02360054126532,252.2210252373677 100.02360054126532,247.77897476263234 100.21233180224633,243.34419200856246 100.58940480404615,238.9311953897669 101.15404137915854,234.5544522793992 101.90507645639403,230.22834511047574 102.84096067143898,225.96713767031923 103.95976383840596,221.78494166476383 105.25917927452124,217.69568362814897 106.7365289681641,213.7130722543426 108.38876957856544,209.85056622308326 110.21249925359189,206.1213425948044 112.20396525018836,202.5382658458202 114.35907234024043,199.11385761429744 116.673391982836,195.86026722582818 119.1421722421766,192.78924306565267 121.76034842869836,189.91210486266084 124.52255443932879,187.23971694823626 127.42313477122411,184.78246255079512 130.45615718180602,182.5502191845291 133.61542596645944,180.5523351883765 136.89449582385186,178.7976074686431 140.28668627750753,177.29426049596424 143.78509662101357,176.049926604458 147.38262135304797,175.0716276379668 151.07196606731486,174.3657579852329 154.84566376144275,173.93806904270514 158.69609152795567,173.79365514043798 162.6154875895622,173.93694096322838 166.59596864023152,174.371670495748 170.6295474528337,175.100897516972 174.70815071352084,176.12697766569613 178.82363704251347,177.45156209537248 182.96781516053608,179.07559273289098 187.1324621598204,180.99929915229956 191.30934183835635,183.22219707079466 195.49022305593257,185.74308847063674 199.66689807046032,188.56006334696042 203.8312008131204,191.67050307776282 207.97502506101475,195.07108540867694 212.09034246623685,198.75779104147625 216.16922040060538,202.72591181162198 220.20383957572093,206.97006043656137 224.18651139851997,211.48418181292448 228.1096950231002,216.26156583725657 231.96601406028105,221.29486172146864 235.74827290714097,226.57609377079916 239.4494726596347,232.0966785887648 243.06282657234337,237.84744367034517 246.58177503043143,243.8186473414902 250.00000000000003,250.00000000000003" fill="none" stroke="blue" stroke-width="1" />
</svg>