<?xml version="1.0" encoding="UTF-8" standalone="no"?>
<!-- Created with Inkscape (http://www.inkscape.org/) -->

<svg
   xmlns:dc="http://purl.org/dc/elements/1.1/"
   xmlns:cc="http://creativecommons.org/ns#"
   xmlns:rdf="http://www.w3.org/1999/02/22-rdf-syntax-ns#"
   xmlns:svg="http://www.w3.org/2000/svg"
   xmlns="http://www.w3.org/2000/svg"
   xmlns:sodipodi="http://sodipodi.sourceforge.net/DTD/sodipodi-0.dtd"
   xmlns:inkscape="http://www.inkscape.org/namespaces/inkscape"
   width="500"
   height="500"
   id="svg2"
   version="1.1"
   inkscape:version="0.48.3.1 r9886"
   sodipodi:docname="offcenterspiraly.svg">
  <defs
     id="defs4" />
  <sodipodi:namedview
     id="base"
     pagecolor="#ffffff"
     bordercolor="#666666"
     borderopacity="1.0"
     inkscape:pageopacity="0.0"
     inkscape:pageshadow="2"
     inkscape:zoom="0.98994949"
     inkscape:cx="422.4967"
     inkscape:cy="265.20156"
     inkscape:document-units="px"
     inkscape:current-layer="svg2"
     showgrid="false"
     inkscape:window-width="1920"
     inkscape:window-height="1025"
     inkscape:window-x="0"
     inkscape:window-y="27"
     inkscape:window-maximized="1" />
  <metadata
     id="metadata7">
    <rdf:RDF>
      <cc:Work
         rdf:about="">
        <dc:format>image/svg+xml</dc:format>
        <dc:type
           rdf:resource="http://purl.org/dc/dcmitype/StillImage" />
        <dc:title />
      </cc:Work>
    </rdf:RDF>
  </metadata>
  <path
     sodipodi:type="spiral"
     style="fill:none;stroke:#000000;stroke-width:1px;stroke-linecap:butt;stroke-linejoin:miter;stroke-opacity:1"
     id="path2982"
     sodipodi:cx="407.09149"
     sodipodi:cy="272.71567"
     sodipodi:expansion="1"
     sodipodi:revolution="3"
     sodipodi:radius="41.453194"
     sodipodi:argument="-18.029688"
     sodipodi:t0="0"
     d="m 407.09149,272.71567 c 1.41813,1.51942 -1.3485,2.66124 -2.52538,2.35702 -3.18928,-0.82441 -3.56398,-4.95882 -2.18866,-7.40779 2.46013,-4.38063 8.46717,-4.69662 12.29019,-2.02029 5.61043,3.92761 5.86475,12.02382 1.85193,17.17259 -5.34845,6.86251 -15.59769,7.04812 -22.05499,1.68357 -8.12586,-6.75074 -8.2394,-19.17981 -1.51521,-26.9374 8.14389,-9.39548 22.76657,-9.43526 31.8198,-1.34685 10.66893,9.53191 10.63399,26.35622 1.17849,36.70221 -10.91676,11.94486 -29.94781,11.83464 -41.58462,1.01012 -13.22248,-12.29951 -13.03663,-33.54074 -0.84175,-46.46701 13.68081,-14.50133 37.13467,-14.23961 51.34942,-0.6734 15.78105,15.06107 15.4433,40.72935 0.50503,56.23183" />
</svg>
