<?xml version="1.0" encoding="UTF-8" standalone="no"?>
<svg height="500" width="500">
<path d="M 250.0,250.0 252.39275747869803,254.32694686095692 254.85602139935966,258.50678943075843 257.3853691382557,262.5323249878646 259.9762089650014,266.39673436044063 262.6237901578033,270.093596794972 265.3232134838299,273.6169039139204 268.069442021036,276.9610727309529 270.85731229699536,280.120957694407 273.68154571957626,283.09186173186464 276.5367602736343,285.8695462709667 279.41748245728974,288.4502402139262 282.3181594308157,290.83064784556603 285.23317135067776,293.0079556571277 288.15684386084723,294.9798380705543 291.0834607131506,296.74446205044376 294.00727648812574,298.30049059339035 296.9225293876248,299.64708508697635 299.82345407024064,300.7839065332393 302.7042945005354,301.7111156340127 305.5593167830164,302.4293717381196 308.38282195183797,302.9398306529764 311.16915868730644,303.24414132574015 313.91273593043104,303.3444414016934 316.6080353669901,303.2433516701064 319.24962375287964,302.943969410337 321.8321650528664,302.44986065342323 324.3504323652905,301.7650513768794 326.7993196057447,300.894017652825 329.17385292330374,299.84167477194984 331.4692018234784,298.61336536813644 333.6806899727358,297.2148465708296 335.80380566014315,295.6522762144434 337.83421189246985,293.9321981362346 339.7677560999112,292.06152659613736 341.6004794304764,290.0475298540431 343.3286256120148,287.8978129419203 344.9486493618317,285.62029966999177 346.45722432486815,283.2232139079258 347.8512505224857,280.71506018363687 349.1278612950042,278.10460364384164 350.28442972228515,275.4008494219601 351.31857450783514,272.6130214602957 352.2281653131158,269.75054083466534 353.01132752999274,266.8230036307765 353.6664464805242,263.84015842266695 354.192171034589,260.81188340442054 354.58741663716773,257.7481632271631 354.8513677384276,254.65906559400622 354.98347962111427,251.5547176661574 354.98347962111427,248.44528233384258 354.8513677384276,245.34093440599375 354.58741663716773,242.2518367728369 354.192171034589,239.18811659557946 353.6664464805242,236.15984157733305 353.01132752999274,233.17699636922345 352.2281653131158,230.24945916533466 351.31857450783514,227.38697853970427 350.28442972228515,224.59915057803988 349.1278612950042,221.8953963561583 347.8512505224857,219.28493981636308 346.45722432486815,216.7767860920742 344.9486493618317,214.37970033000823 343.3286256120148,212.10218705807972 341.60047943047635,209.95247014595685 339.7677560999112,207.93847340386264 337.8342118924698,206.06780186376534 335.8038056601431,204.34772378555658 333.6806899727358,202.7851534291704 331.4692018234784,201.38663463186356 329.1738529233037,200.15832522805016 326.7993196057447,199.10598234717497 324.3504323652905,198.2349486231206 321.8321650528664,197.55013934657677 319.2496237528796,197.056030589663 316.60803536699007,196.7566483298936 313.91273593043104,196.65555859830658 311.1691586873065,196.75585867425985 308.3828219518379,197.0601693470236 305.5593167830164,197.57062826188042 302.7042945005354,198.28888436598726 299.8234540702406,199.21609346676075 296.92252938762476,200.3529149130237 294.00727648812574,201.69950940660965 291.0834607131506,203.25553794955624 288.1568438608472,205.0201619294457 285.23317135067776,206.9920443428723 282.3181594308157,209.16935215443397 279.41748245728974,211.54975978607382 276.53676027363423,214.13045372903332 273.68154571957626,216.90813826813536 270.85731229699536,219.87904230559292 268.069442021036,223.03892726904712 265.3232134838298,226.3830960860796 262.6237901578032,229.90640320502808 259.9762089650014,233.60326563955937 257.38536913825567,237.4676750121355 254.85602139935966,241.49321056924157 252.39275747869803,245.6730531390431 250.0,250.0 249.99999999999997,250.00000000000003 247.60724252130194,254.32694686095692 245.14397860064034,258.50678943075843 242.61463086174433,262.53232498786457 240.02379103499865,266.39673436044063 237.3762098421967,270.093596794972 234.67678651617018,273.6169039139204 231.93055797896395,276.96107273095294 229.1426877030046,280.1209576944071 226.31845428042374,283.0918617318647 223.46323972636574,285.8695462709667 220.58251754271026,288.4502402139262 217.68184056918426,290.8306478455661 214.76682864932226,293.0079556571277 211.84315613915277,294.97983807055437 208.9165392868494,296.74446205044376 205.99272351187423,298.30049059339035 203.0774706123752,299.64708508697635 200.17654592975938,300.78390653323925 197.29570549946453,301.71111563401274 194.44068321698362,302.4293717381196 191.61717804816203,302.9398306529764 188.8308413126935,303.24414132574015 186.08726406956893,303.3444414016934 183.39196463300988,303.2433516701064 180.75037624712036,302.943969410337 178.16783494713354,302.44986065342323 175.64956763470954,301.7650513768794 173.20068039425524,300.894017652825 170.82614707669632,299.84167477194984 168.53079817652159,298.61336536813644 166.31931002726418,297.2148465708296 164.19619433985685,295.6522762144434 162.16578810753018,293.93219813623466 160.23224390008883,292.06152659613736 158.3995205695236,290.0475298540431 156.67137438798517,287.8978129419203 155.05135063816826,285.62029966999177 153.54277567513185,283.2232139079258 152.1487494775143,280.71506018363687 150.8721387049958,278.10460364384164 149.71557027771485,275.4008494219602 148.68142549216486,272.61302146029567 147.77183468688418,269.75054083466534 146.98867247000726,266.8230036307765 146.3335535194758,263.84015842266695 145.80782896541098,260.81188340442054 145.4125833628323,257.7481632271631 145.1486322615724,254.65906559400622 145.01652037888573,251.55471766615742 145.01652037888573,248.44528233384264 145.1486322615724,245.34093440599372 145.41258336283232,242.25183677283684 145.80782896541098,239.18811659557946 146.33355351947583,236.15984157733305 146.98867247000726,233.17699636922345 147.77183468688418,230.2494591653347 148.68142549216486,227.38697853970427 149.71557027771485,224.59915057803983 150.87213870499582,221.8953963561583 152.14874947751431,219.28493981636308 153.54277567513185,216.77678609207413 155.0513506381683,214.37970033000818 156.67137438798522,212.10218705807972 158.39952056952362,209.95247014595685 160.23224390008886,207.9384734038626 162.16578810753015,206.0678018637654 164.19619433985687,204.34772378555658 166.3193100272642,202.78515342917035 168.5307981765216,201.38663463186356 170.8261470766963,200.15832522805016 173.20068039425527,199.10598234717497 175.6495676347095,198.2349486231206 178.1678349471336,197.55013934657677 180.7503762471204,197.056030589663 183.39196463300993,196.7566483298936 186.08726406956896,196.65555859830658 188.83084131269354,196.75585867425985 191.61717804816206,197.0601693470236 194.4406832169836,197.57062826188042 197.2957054994646,198.28888436598726 200.1765459297594,199.21609346676075 203.07747061237524,200.3529149130237 205.9927235118743,201.6995094066097 208.91653928684946,203.25553794955624 211.84315613915282,205.0201619294457 214.76682864932224,206.9920443428723 217.6818405691843,209.16935215443397 220.58251754271032,211.54975978607388 223.46323972636577,214.13045372903338 226.31845428042377,216.90813826813542 229.14268770300467,219.87904230559298 231.93055797896398,223.03892726904712 234.67678651617013,226.3830960860796 237.37620984219674,229.90640320502803 240.02379103499868,233.60326563955942 242.61463086174427,237.46767501213537 245.14397860064037,241.49321056924163 247.607242521302,245.67305313904313 250.0,250.00000000000003" fill="none" stroke="blue" stroke-width="1" /></svg>